<svg width="1600" height="900" viewBox="0 0 1600 900" fill="none" xmlns="http://www.w3.org/2000/svg">
  <rect width="1600" height="900" rx="48" fill="#06070A"/>
  <rect x="32" y="32" width="1536" height="836" rx="36" fill="url(#bg)"/>
  <rect x="88" y="76" width="1424" height="72" rx="22" fill="#111827" stroke="#243244"/>
  <text x="132" y="122" fill="#F472B6" font-family="Arial, sans-serif" font-size="40" font-weight="700">Miku Doujin Theme</text>
  <rect x="1238" y="92" width="164" height="38" rx="19" fill="#1E293B"/>
  <text x="1276" y="117" fill="#CBD5E1" font-family="Arial, sans-serif" font-size="18" font-weight="700">Doujin only</text>
  <rect x="120" y="190" width="932" height="472" rx="34" fill="#0C1119" stroke="#243244"/>
  <rect x="166" y="236" width="204" height="286" rx="28" fill="url(#cover1)"/>
  <rect x="398" y="236" width="618" height="114" rx="30" fill="url(#heroGlow)"/>
  <text x="430" y="304" fill="#FAFAFA" font-family="Arial, sans-serif" font-size="60" font-weight="700">Dark catalog hero</text>
  <text x="430" y="344" fill="#CBD5E1" font-family="Arial, sans-serif" font-size="24">cover-first layout  •  taxonomy pills  •  compact reader entry</text>
  <rect x="398" y="388" width="178" height="56" rx="18" fill="#F472B6"/>
  <rect x="594" y="388" width="192" height="56" rx="18" fill="#111827" stroke="#334155"/>
  <text x="454" y="424" fill="#111827" font-family="Arial, sans-serif" font-size="24" font-weight="700">Read</text>
  <text x="646" y="424" fill="#F8FAFC" font-family="Arial, sans-serif" font-size="24" font-weight="700">Details</text>
  <g>
    <rect x="398" y="476" width="286" height="142" rx="24" fill="#111827" stroke="#334155"/>
    <text x="430" y="524" fill="#F8FAFC" font-family="Arial, sans-serif" font-size="26" font-weight="700">Latest cards rail</text>
    <text x="430" y="564" fill="#94A3B8" font-family="Arial, sans-serif" font-size="20">dark shelf blocks with clear cover focus</text>
    <rect x="430" y="584" width="96" height="18" rx="9" fill="#EC4899"/>
  </g>
  <g>
    <rect x="706" y="476" width="310" height="142" rx="24" fill="#111827" stroke="#334155"/>
    <text x="738" y="524" fill="#F8FAFC" font-family="Arial, sans-serif" font-size="26" font-weight="700">Reader-ready routing</text>
    <text x="738" y="564" fill="#94A3B8" font-family="Arial, sans-serif" font-size="20">archive, comic detail and chapter view stay aligned</text>
    <rect x="738" y="584" width="114" height="18" rx="9" fill="#22D3EE"/>
  </g>
  <rect x="1084" y="190" width="396" height="472" rx="34" fill="#0C1119" stroke="#243244"/>
  <text x="1124" y="242" fill="#F8FAFC" font-family="Arial, sans-serif" font-size="30" font-weight="700">Taxonomy sidebar</text>
  <text x="1124" y="280" fill="#94A3B8" font-family="Arial, sans-serif" font-size="20">genre and series filters stay visible for browsing.</text>
  <g>
    <rect x="1124" y="326" width="126" height="38" rx="19" fill="#1D4ED8"/>
    <rect x="1264" y="326" width="164" height="38" rx="19" fill="#312E81"/>
    <rect x="1124" y="378" width="148" height="38" rx="19" fill="#0F766E"/>
    <rect x="1286" y="378" width="112" height="38" rx="19" fill="#7C3AED"/>
    <rect x="1124" y="430" width="176" height="38" rx="19" fill="#BE185D"/>
    <rect x="1314" y="430" width="116" height="38" rx="19" fill="#374151"/>
    <rect x="1124" y="482" width="138" height="38" rx="19" fill="#1E293B"/>
    <rect x="1276" y="482" width="154" height="38" rx="19" fill="#1E40AF"/>
  </g>
  <text x="1124" y="580" fill="#F472B6" font-family="Arial, sans-serif" font-size="22" font-weight="700">Focus</text>
  <text x="1124" y="616" fill="#CBD5E1" font-family="Arial, sans-serif" font-size="22">catalog browsing for Doujin-only sites</text>
  <rect x="120" y="702" width="1360" height="116" rx="30" fill="#101827" stroke="#243244"/>
  <text x="168" y="752" fill="#A7F3D0" font-family="Arial, sans-serif" font-size="24" font-weight="700">Package</text>
  <text x="168" y="794" fill="#F8FAFC" font-family="Arial, sans-serif" font-size="42" font-weight="700">miku-doujin-theme-1.0.0.zip</text>
  <text x="980" y="752" fill="#F472B6" font-family="Arial, sans-serif" font-size="24" font-weight="700">Best for</text>
  <text x="980" y="794" fill="#CBD5E1" font-family="Arial, sans-serif" font-size="22">Doujin catalog with bold dark UI and visible genre navigation</text>
  <defs>
    <linearGradient id="bg" x1="134" y1="94" x2="1460" y2="822" gradientUnits="userSpaceOnUse">
      <stop stop-color="#0B1020"/>
      <stop offset="0.55" stop-color="#08090F"/>
      <stop offset="1" stop-color="#121423"/>
    </linearGradient>
    <linearGradient id="cover1" x1="170" y1="236" x2="358" y2="522" gradientUnits="userSpaceOnUse">
      <stop stop-color="#FDE68A"/>
      <stop offset="0.44" stop-color="#F472B6"/>
      <stop offset="1" stop-color="#0EA5E9"/>
    </linearGradient>
    <linearGradient id="heroGlow" x1="398" y1="236" x2="1016" y2="350" gradientUnits="userSpaceOnUse">
      <stop stop-color="#1E293B"/>
      <stop offset="0.58" stop-color="#3B0F2F"/>
      <stop offset="1" stop-color="#0F172A"/>
    </linearGradient>
  </defs>
</svg>
